<svg width="146" height="52" viewBox="0 0 146 52" fill="none" xmlns="http://www.w3.org/2000/svg">
<path d="M15.2238 20.0762C15.2737 19.5552 15.5819 19.2947 16.1426 19.2947H19.134C19.7475 19.2947 20.0557 19.5941 20.0557 20.193V51.0987C20.0557 51.6976 19.7475 52 19.134 52H15.8373C15.2502 52 14.9567 51.7006 14.9567 51.0987V37.1715C14.4459 38.2405 13.6092 39.0371 12.4438 39.5581C11.2814 40.0791 9.98383 40.3396 8.55128 40.3396C5.84176 40.3396 3.73697 39.4353 2.24277 37.6207C0.748567 35.8061 0 33.126 0 29.5806C0 26.0352 0.748567 23.3552 2.24277 21.5405C3.73697 19.7289 5.84176 18.8216 8.55128 18.8216C9.95741 18.8216 11.2667 19.121 12.482 19.7229C13.6973 20.3218 14.5721 21.1453 15.1093 22.1873L15.2238 20.0732V20.0762ZM10.0103 23.0078C8.39863 23.0078 7.19212 23.5228 6.38778 24.5529C5.58343 25.583 5.17833 27.2599 5.17833 29.5806C5.17833 31.9013 5.5805 33.5782 6.38778 34.6083C7.19212 35.6384 8.40157 36.1534 10.0103 36.1534C13.3333 36.1534 14.9948 33.9615 14.9948 29.5806C14.9948 25.1997 13.3333 23.0078 10.0103 23.0078Z" fill="#fdfdfd"/>
<path d="M24.8906 20.193C24.8906 19.5941 25.1959 19.2947 25.8094 19.2947H29.1061C29.6697 19.2947 29.9486 19.5941 29.9486 20.193V31.8893C29.9486 33.2189 30.2157 34.231 30.7529 34.9197C31.2901 35.6114 32.2089 35.9558 33.5153 35.9558C34.895 35.9558 35.9899 35.5395 36.7943 34.7041C37.5986 33.8686 38.0037 32.7487 38.0037 31.3383V20.19C38.0037 19.5911 38.2973 19.2917 38.8844 19.2917H42.2221C42.7858 19.2917 43.0646 19.5911 43.0646 20.19V39.0071C43.0646 39.606 42.7828 39.9054 42.2221 39.9054H39.1545C38.5909 39.9054 38.2856 39.6569 38.2356 39.1628L38.083 37.0517C36.8559 39.2437 34.7717 40.3366 31.8332 40.3366C27.2068 40.3366 24.8935 37.8453 24.8935 32.8655V20.19L24.8906 20.193Z" fill="#fdfdfd"/>
<path d="M53.3831 16.0847C53.3831 16.6835 53.1013 16.986 52.5406 16.986H49.1266C48.5629 16.986 48.2841 16.6865 48.2841 16.0847V13.3477C48.2841 12.7488 48.5659 12.4494 49.1266 12.4494H52.5406C53.1043 12.4494 53.3831 12.7488 53.3831 13.3477V16.0847ZM53.3831 39.0071C53.3831 39.606 53.0896 39.9054 52.5025 39.9054H49.1677C48.5806 39.9054 48.2841 39.606 48.2841 39.0071V20.19C48.2841 19.5911 48.5776 19.2917 49.1677 19.2917H52.5025C53.0896 19.2917 53.3831 19.5911 53.3831 20.19V39.0071Z" fill="#fdfdfd"/>
<path d="M76.9292 39.0071C76.9292 39.606 76.6357 39.9054 76.0486 39.9054H72.752C72.1384 39.9054 71.8331 39.606 71.8331 39.0071V27.3887C71.8331 26.0052 71.5454 24.9752 70.9701 24.2984C70.3947 23.6187 69.4436 23.2803 68.1138 23.2803C66.6812 23.2803 65.5774 23.7025 64.7966 24.5499C64.0157 25.3974 63.6282 26.5502 63.6282 28.0115V39.0041C63.6282 39.603 63.3347 39.9025 62.7476 39.9025H59.4509C58.8638 39.9025 58.5673 39.603 58.5673 39.0041V20.187C58.5673 19.5881 58.8609 19.2887 59.4509 19.2887H62.4804C63.0176 19.2887 63.3112 19.5492 63.3611 20.0703L63.5519 22.1035C64.8318 19.9115 66.9777 18.8186 69.9955 18.8186C72.3204 18.8186 74.0612 19.4833 75.2119 20.8129C76.3627 22.1424 76.9381 24.0199 76.9381 26.4454V39.0011L76.9292 39.0071Z" fill="#fdfdfd"/>
<path d="M99.9382 23.6756V33.1799C99.9382 34.2998 100.123 35.0694 100.493 35.4886C100.863 35.9049 101.562 36.1145 102.583 36.1145C102.762 36.1145 103.299 36.0486 104.195 35.9198C104.679 35.8929 104.949 36.1534 104.999 36.7014L105.19 38.8903C105.216 39.3335 104.973 39.633 104.462 39.7917C103.669 40.0791 102.595 40.2229 101.242 40.2229C98.9929 40.2229 97.3813 39.7288 96.4096 38.7376C95.4379 37.7464 94.9536 36.0785 94.9536 33.7309V23.6786H87.782V33.1829C87.782 34.3028 87.9611 35.0724 88.3192 35.4916C88.6773 35.9079 89.3555 36.1175 90.3506 36.1175C90.606 36.1175 90.9054 36.0845 91.2518 36.0187C91.5982 35.9528 91.8213 35.9228 91.9241 35.9228C92.1531 35.8959 92.3321 35.9498 92.4613 36.0785C92.5904 36.2073 92.6668 36.4169 92.6903 36.7044L92.9192 38.8933C92.9457 39.3096 92.702 39.612 92.1912 39.7947C91.3487 40.0821 90.286 40.2258 89.0091 40.2258C86.8103 40.2258 85.2251 39.7318 84.2535 38.7406C83.2818 37.7494 82.7974 36.0815 82.7974 33.7339V23.6816H80.6897C80.0762 23.6816 79.7709 23.3821 79.7709 22.7802V20.5883C79.7709 19.9894 80.0762 19.69 80.6897 19.69H82.8767V14.8779C82.8767 14.3299 83.1702 14.0574 83.7574 14.0574H86.825C87.4385 14.0574 87.7438 14.3299 87.7438 14.8779V19.69H95.0299V14.8779C95.0299 14.3299 95.3235 14.0574 95.9135 14.0574H98.9812C99.5947 14.0574 99.9 14.3299 99.9 14.8779V19.69H104.195C104.758 19.69 105.037 19.9894 105.037 20.5883V22.7802C105.037 23.3791 104.755 23.6816 104.195 23.6816H99.9382V23.6756Z" fill="#fdfdfd"/>
<path d="M110.198 37.5608C108.422 35.7102 107.532 33.0512 107.532 29.5806C107.532 26.11 108.422 23.451 110.198 21.6004C111.974 19.7498 114.41 18.8246 117.505 18.8246C120.599 18.8246 123.038 19.7498 124.829 21.6004C126.619 23.451 127.512 26.113 127.512 29.5806C127.512 33.0482 126.617 35.7102 124.829 37.5608C123.038 39.4144 120.599 40.3366 117.505 40.3366C114.41 40.3366 111.977 39.4114 110.198 37.5608ZM122.336 29.5806C122.336 25.1728 120.725 22.9689 117.505 22.9689C114.284 22.9689 112.711 25.1728 112.711 29.5806C112.711 33.9884 114.308 36.1923 117.505 36.1923C120.701 36.1923 122.336 33.9884 122.336 29.5806Z" fill="#fdfdfd"/>
<path d="M137.754 40.3366C135.171 40.3366 132.96 39.9593 131.12 39.2018C130.582 39.0191 130.392 38.6807 130.544 38.1836L131.12 36.1504C131.272 35.5755 131.63 35.3808 132.194 35.5635C133.779 36.1384 135.376 36.4259 136.988 36.4259C138.368 36.4259 139.383 36.2642 140.038 35.9378C140.69 35.6114 141.015 35.0455 141.015 34.237C141.015 33.5333 140.701 32.9733 140.076 32.5541C139.451 32.1379 138.394 31.6677 136.912 31.1467C134.842 30.4161 133.459 29.8022 132.769 29.3081C131.337 28.266 130.621 26.7119 130.621 24.6518C130.621 22.7473 131.278 21.301 132.596 20.3098C133.914 19.3187 135.811 18.8246 138.291 18.8246C140.772 18.8246 142.83 19.1899 144.541 19.9205C145.052 20.1541 145.231 20.5074 145.078 20.9776L144.503 22.9329C144.35 23.5079 143.992 23.7025 143.428 23.5199C141.793 22.9988 140.334 22.7383 139.057 22.7383C137.857 22.7383 136.979 22.894 136.43 23.2084C135.881 23.5228 135.605 24.0439 135.605 24.7745C135.605 25.2956 135.796 25.7447 136.181 26.125C136.565 26.5023 136.994 26.7958 137.466 27.0054C137.939 27.215 138.699 27.4995 139.747 27.8678C141.817 28.6254 143.379 29.4578 144.427 30.3711C145.475 31.2844 146 32.614 146 34.3597C146 38.3483 143.252 40.3456 137.754 40.3456V40.3366Z" fill="#fdfdfd"/>
<path d="M132.775 5.62506C132.094 5.90654 131.46 6.17005 130.823 6.43356C130.442 6.59127 130.251 6.87574 130.251 7.28698C130.251 9.18545 130.251 8.27814 130.251 10.1766C130.251 10.3443 130.286 10.4551 130.433 10.5659C130.829 10.8653 130.838 11.4552 130.447 11.7577C130.292 11.8775 130.262 11.9942 130.28 12.1709C130.43 13.6412 130.574 15.1145 130.717 16.5847C130.779 17.1986 130.838 17.8124 130.902 18.4682C130.248 18.1358 129.611 18.1119 128.933 18.4742C128.983 17.9921 129.03 17.5579 129.077 17.1237C129.259 15.4558 129.438 13.7879 129.625 12.12C129.64 11.9793 129.608 11.9104 129.485 11.8355C128.974 11.5211 128.974 10.8204 129.482 10.503C129.593 10.4341 129.658 10.3772 129.658 10.2275C129.652 8.26017 129.655 9.09562 129.652 7.12827C129.652 7.07737 129.643 7.02646 129.637 6.93663C129.529 6.97555 129.435 7.0055 129.344 7.04143C128.387 7.4337 127.433 7.83197 126.476 8.21825C126.376 8.25718 126.238 8.27514 126.141 8.23921C124.623 7.63134 123.041 7.28997 121.432 7.07437C119.489 6.81385 117.537 6.78391 115.582 6.92166C113.28 7.08336 111.014 7.48461 108.783 8.0835C108.583 8.1374 108.41 8.12542 108.219 8.05056C106.267 7.29896 104.312 6.55334 102.36 5.80473C102.284 5.77478 102.207 5.73885 102.084 5.68495C102.859 5.3885 103.59 5.11002 104.321 4.83153C108.536 3.2325 112.752 1.63047 116.967 0.040425C117.111 -0.013475 117.305 -0.013475 117.449 0.040425C122.457 1.85506 127.462 3.67867 132.467 5.49929C132.555 5.53223 132.64 5.56817 132.772 5.61907L132.775 5.62506Z" fill="#fdfdfd"/>
<path d="M125.985 15.6624C120.282 13.9826 114.598 14.1203 108.886 15.6025C108.883 15.5067 108.874 15.4259 108.874 15.345C108.874 13.4316 108.874 11.5151 108.868 9.60168C108.868 9.40105 108.93 9.31721 109.112 9.25133C110.582 8.7273 112.1 8.41588 113.641 8.21825C115.535 7.9727 117.434 7.93677 119.336 8.06553C121.529 8.21226 123.684 8.58357 125.806 9.1615C125.877 9.17947 125.974 9.29026 125.974 9.35614C125.982 11.4522 125.979 13.5484 125.979 15.6594L125.985 15.6624Z" fill="#fdfdfd"/>
</svg>
